<svg xmlns="http://www.w3.org/2000/svg" viewBox="0 0 48 48"><path fill="#37474f" d="M9 13.025H39V26.025H9z"/><path fill="#37474f" d="M24 20.025A15 6 0 1 0 24 32.025A15 6 0 1 0 24 20.025Z"/><path fill="#78909c" d="M23.1,3.225l-22.5,9.9c-0.8,0.4-0.8,1.5,0,1.9l22.5,9.9c0.6,0.2,1.2,0.2,1.8,0l22.5-9.9 c0.8-0.4,0.8-1.5,0-1.9l-22.5-9.9C24.3,2.925,23.7,2.925,23.1,3.225z"/><path fill="#37474f" d="M43.2,15.425l-20-3.4c-0.5-0.1-1.1,0.3-1.2,0.8s0.3,1.1,0.8,1.2l19.2,3.2v14.8c0,0.6,0.4,1,1,1 s1-0.4,1-1v-15.6C44,15.925,43.6,15.525,43.2,15.425z"/><path fill="#37474f" d="M43 30.025A2 2 0 1 0 43 34.025A2 2 0 1 0 43 30.025Z"/><path fill="#37474f" d="M46,35.025c0,1.7-3,6-3,6s-3-4.3-3-6s1.3-3,3-3S46,33.325,46,35.025z"/><path fill="#2196f3" d="M13.625 34.058l1.88 7.199 1.873-7.199H20v9.953h-2.014v-2.693l.185-4.15-1.989 6.844h-1.367l-1.989-6.844.185 4.15v2.693H11v-9.953H13.625zM22 44.025v-9.953h2.821c1.039 0 1.828.23 2.368.695.54.461.81 1.139.81 2.031 0 .508-.112.941-.335 1.307-.224.365-.529.631-.916.799.446.129.79.385 1.032.77.241.387.362.859.362 1.426 0 .965-.266 1.695-.797 2.188-.53.492-1.3.738-2.307.738H22zM24 38.236h.801c.788 0 1.183-.41 1.183-1.225 0-.451-.092-.775-.273-.971-.183-.195-.479-.293-.889-.293H24V38.236zM24 39.697v2.659h1.04c.359 0 .633-.11.82-.335.187-.223.28-.54.28-.949 0-.895-.324-1.352-.971-1.375H24zM34.32 42.025h-2.741l-.533 1.953H28.92l3.11-9.953h1.839L37 43.978h-2.146L34.32 42.025zM32.017 40.025h1.859l-.93-3.307L32.017 40.025z"/></svg>