<svg viewBox="0 0 64 64" xmlns="http://www.w3.org/2000/svg"><path fill="#F68820" d="M48 17H32c-1.11 0-2 .89-2 2v12c0 1.1.89 2 2 2h16c1.1 0 2-.9 2-2V19c0-1.11-.9-2-2-2Z"/><path fill="#808080" d="M32 17H16c-1.11 0-2 .89-2 2v12c0 1.1.89 2 2 2h18V19c0-1.11-.9-2-2-2Z"/><path fill="#5C76B2" d="M40 1H24c-1.11 0-2 .895-2 2v12c0 1.1.89 2 2 2h16c1.1 0 2-.9 2-2V3c0-1.105-.9-2-2-2Z"/><path fill="#6FA4D8" d="M36 17H24c-1.11 0-2-.9-2-2V3c0-1.105.89-2 2-2h12c1.1 0 2 .895 2 2v12c0 1.1-.9 2-2 2Z"/><path fill="#DBDEE3" d="M35 15H25c-.56 0-1-.45-1-1V4c0-.552.44-1 1-1h10c.55 0 1 .44 1 1v10c0 .55-.45 1-1 1Z"/><path fill="#B3B4B6" d="M28 33H16c-1.11 0-2-.9-2-2V19c0-1.11.89-2 2-2h12c1.1 0 2 .89 2 2v12c0 1.1-.9 2-2 2Z"/><path fill="#DBDEE3" d="M27 31H17c-.56 0-1-.45-1-1V20c0-.56.44-1 1-1h10c.55 0 1 .44 1 1v10c0 .55-.45 1-1 1Z"/><path fill="#FBBE18" d="M44 33H32c-1.11 0-2-.9-2-2V19c0-1.11.89-2 2-2h12c1.1 0 2 .89 2 2v12c0 1.1-.9 2-2 2Z"/><path fill="#DBDEE3" d="M43 31H33c-.56 0-1-.45-1-1V20c0-.56.44-1 1-1h10c.55 0 1 .44 1 1v10c0 .55-.45 1-1 1Z"/><path fill="#EEC78E" d="M51 31H15.5v32H32c.82 0 1.5-.68 1.5-1.5V57h15c2.2 0 4-1.8 4-4V32.5c0-.83-.68-1.5-1.5-1.5Z"/><path fill="#DB9E68" d="M32 63H15.5v0c0-3.314 2.686-6 6-6h12v4.5c0 .82-.68 1.5-1.5 1.5Z"/><path fill="#55525B" d="M13 31c-.83 0-1.5.67-1.5 1.5V49v0c0 2.2 1.79 4 4 4h10c2.2 0 4-1.8 4-4v-8h3c.82 0 1.5-.68 1.5-1.5V31H13Z"/><path fill="#DB9E68" d="M29.5 35c-3.314 0-6 2.686-6 6s2.686 6 6 6V35Z"/><g fill="#55525B"><path d="M39.5 33a2 2 0 1 0 0 4 2 2 0 1 0 0-4Z"/><path d="M48.5 33a2 2 0 1 0 0 4 2 2 0 1 0 0-4Z"/></g><path fill="#DB9E68" d="M46 49v0c-1.39 0-2.5-1.12-2.5-2.5V37v0c2.76 0 5 2.23 5 5v4.5c0 1.38-1.12 2.5-2.5 2.5Z"/><path fill="#55525B" d="M43.5 53h3c1.1 0 2-.9 2-2v0h-7v0c0 1.1.89 2 2 2Z"/><path fill="#6FA4D8" d="M34 12h-.45l-2.74-7.31c-.13-.34-.45-.57-.82-.57 -.37 0-.69.22-.82.56l-2.74 7.3h-.45c-.56 0-1 .44-1 1 0 .55.44 1 1 1h2.5c.55 0 1-.45 1-1 0-.56-.45-1-1-1h-.2l.375-1h2.65l.375 1h-.2c-.56 0-1 .44-1 1 0 .55.44 1 1 1h2.5c.55 0 1-.45 1-1 0-.56-.45-1-1-1Zm-4.58-3l.57-1.54 .57 1.53h-1.15Z"/><path fill="#B3B4B6" d="M25.599 24.471c.24-.44.4-.94.4-1.471 0-1.654-1.346-3-3-3h-5c-.56 0-1 .44-1 1 0 .55.44 1 1 1h.5v6h-.5c-.56 0-1 .44-1 1 0 .55.44 1 1 1h6c1.654 0 3-1.346 3-3 0-1.07-.57-2-1.41-2.529ZM23.999 23c0 .55-.45 1-1 1h-2.5v-2h2.5c.55 0 1 .44 1 1Zm0 5h-3.5v-2h3.5c.55 0 1 .44 1 1 0 .55-.45 1-1 1Z"/><path fill="#FBBE18" d="M41.41 20.172c-.29 0-.54.12-.72.31 -.66-.31-1.37-.49-2.11-.49 -1.34 0-2.6.52-3.54 1.46 -.95.94-1.47 2.19-1.47 3.535 0 1.33.52 2.59 1.46 3.535 .94.94 2.2 1.46 3.53 1.46 1.33 0 2.59-.53 3.53-1.47 .39-.4.39-1.03 0-1.42 -.4-.4-1.03-.4-1.42 0 -1.14 1.13-3.11 1.13-4.25 0 -.57-.57-.88-1.32-.88-2.13 0-.81.31-1.56.87-2.13 1.04-1.05 2.79-1.12 3.95-.24v.52c0 .55.44 1 1 1 .55 0 1-.45 1-1v-2c0-.56-.45-1-1-1Z"/></svg>