<svg xmlns="http://www.w3.org/2000/svg" xmlns:xlink="http://www.w3.org/1999/xlink" id="Layer_1" x="0" y="0" version="1.1" viewBox="0 0 64 64" xml:space="preserve" style="enable-background:new 0 0 64 64"><style type="text/css">.st1{fill:#f68820}.st2{fill:gray}.st3{fill:#5c76b2}.st4{fill:#6fa4d8}.st5{fill:#dbdee3}.st6{fill:#b3b4b6}.st7{fill:#fbbe18}.st8{fill:#eec78e}.st9{fill:#db9e68}.st10{fill:#55525b}</style><g><g><path d="M48,17H32c-1.105,0-2,0.895-2,2v12c0,1.105,0.895,2,2,2h16c1.105,0,2-0.895,2-2V19C50,17.895,49.105,17,48,17 z" class="st1"/></g><g><path d="M32,17H16c-1.105,0-2,0.895-2,2v12c0,1.104,0.895,2,2,2h18V19C34,17.895,33.105,17,32,17z" class="st2"/></g><g><path d="M40,1H24c-1.105,0-2,0.895-2,2v12c0,1.104,0.895,2,2,2h16c1.105,0,2-0.896,2-2V3C42,1.895,41.105,1,40,1z" class="st3"/></g><g><path d="M36,17H24c-1.105,0-2-0.895-2-2V3c0-1.105,0.895-2,2-2h12c1.105,0,2,0.895,2,2v12C38,16.105,37.105,17,36,17z" class="st4"/></g><g><path d="M35,15H25c-0.552,0-1-0.448-1-1V4c0-0.552,0.448-1,1-1h10c0.552,0,1,0.448,1,1v10C36,14.552,35.552,15,35,15z" class="st5"/></g><g><path d="M28,33H16c-1.105,0-2-0.895-2-2V19c0-1.105,0.895-2,2-2h12c1.105,0,2,0.895,2,2v12C30,32.105,29.105,33,28,33 z" class="st6"/></g><g><path d="M27,31H17c-0.552,0-1-0.448-1-1V20c0-0.552,0.448-1,1-1h10c0.552,0,1,0.448,1,1v10C28,30.552,27.552,31,27,31 z" class="st5"/></g><g><path d="M44,33H32c-1.105,0-2-0.895-2-2V19c0-1.105,0.895-2,2-2h12c1.105,0,2,0.895,2,2v12C46,32.105,45.105,33,44,33 z" class="st7"/></g><g><path d="M43,31H33c-0.552,0-1-0.448-1-1V20c0-0.552,0.448-1,1-1h10c0.552,0,1,0.448,1,1v10C44,30.552,43.552,31,43,31 z" class="st5"/></g><g><path d="M51,31H15.5v32H32c0.828,0,1.5-0.672,1.5-1.5V57h15c2.209,0,4-1.791,4-4V32.5C52.5,31.672,51.828,31,51,31z" class="st8"/></g><g><path d="M32,63H15.5v0c0-3.314,2.686-6,6-6h12v4.5C33.5,62.328,32.828,63,32,63z" class="st9"/></g><g><path d="M13,31c-0.828,0-1.5,0.672-1.5,1.5V49v0c0,2.209,1.791,4,4,4h10c2.209,0,4-1.791,4-4v-8h3 c0.828,0,1.5-0.672,1.5-1.5V31H13z" class="st10"/></g><g><path d="M29.5,35c-3.314,0-6,2.686-6,6c0,3.314,2.686,6,6,6V35z" class="st9"/></g><g><circle cx="39.5" cy="35" r="2" class="st10"/></g><g><circle cx="48.5" cy="35" r="2" class="st10"/></g><g><path d="M46,49L46,49c-1.381,0-2.5-1.119-2.5-2.5V37h0c2.761,0,5,2.239,5,5v4.5C48.5,47.881,47.381,49,46,49z" class="st9"/></g><g><path d="M43.5,53h3c1.105,0,2-0.895,2-2v0h-7v0C41.5,52.105,42.395,53,43.5,53z" class="st10"/></g><path d="M34,12h-0.45l-2.739-7.304C30.684,4.357,30.361,4.134,30,4.134s-0.684,0.224-0.811,0.563L26.45,12H26 c-0.552,0-1,0.447-1,1s0.448,1,1,1h2.5c0.552,0,1-0.447,1-1s-0.448-1-1-1h-0.2l0.375-1h2.65l0.375,1h-0.2c-0.552,0-1,0.447-1,1 s0.448,1,1,1H34c0.552,0,1-0.447,1-1S34.552,12,34,12z M29.425,9L30,7.467L30.575,9H29.425z" class="st4"/><path d="M25.599,24.471C25.847,24.034,26,23.537,26,23c0-1.654-1.346-3-3-3h-5c-0.552,0-1,0.447-1,1s0.448,1,1,1h0.5v6 H18c-0.552,0-1,0.447-1,1s0.448,1,1,1h6c1.654,0,3-1.346,3-3C27,25.935,26.438,25.003,25.599,24.471z M24,23c0,0.552-0.449,1-1,1 h-2.5v-2H23C23.551,22,24,22.448,24,23z M24,28h-3.5v-2H24c0.551,0,1,0.448,1,1S24.551,28,24,28z" class="st6"/><path d="M41.414,20.172c-0.284,0-0.537,0.121-0.719,0.311C40.041,20.177,39.329,20,38.586,20 c-1.336,0-2.591,0.521-3.536,1.465S33.586,23.664,33.586,25s0.52,2.591,1.464,3.535S37.25,30,38.586,30 c1.335,0,2.591-0.521,3.535-1.465c0.391-0.391,0.391-1.023,0-1.414s-1.023-0.391-1.414,0c-1.134,1.134-3.109,1.132-4.243,0 c-0.566-0.566-0.878-1.319-0.878-2.121s0.312-1.555,0.878-2.121c1.044-1.042,2.793-1.114,3.95-0.236v0.529c0,0.553,0.448,1,1,1 s1-0.447,1-1v-2C42.414,20.619,41.966,20.172,41.414,20.172z" class="st7"/></g></svg>